<mxfile host="app.diagrams.net" agent="Mozilla/5.0 (Windows NT 10.0; Win64; x64) AppleWebKit/537.36 (KHTML, like Gecko) Chrome/126.0.0.0 Safari/537.36 OPR/112.0.0.0" version="24.7.14">
  <diagram name="PÃ¡gina-1" id="2apZYcqJmCP8lyuMx0GQ">
    <mxGraphModel dx="1098" dy="585" grid="0" gridSize="10" guides="1" tooltips="1" connect="1" arrows="1" fold="1" page="1" pageScale="1" pageWidth="1654" pageHeight="1169" math="0" shadow="0">
      <root>
        <mxCell id="0" />
        <mxCell id="1" parent="0" />
        <mxCell id="cnREgjGOpxp5mXMlFMmU-1" value="Robo" style="swimlane;fontStyle=1;align=center;verticalAlign=top;childLayout=stackLayout;horizontal=1;startSize=26;horizontalStack=0;resizeParent=1;resizeParentMax=0;resizeLast=0;collapsible=1;marginBottom=0;whiteSpace=wrap;html=1;" vertex="1" parent="1">
          <mxGeometry x="724" y="506" width="200" height="163" as="geometry" />
        </mxCell>
        <mxCell id="cnREgjGOpxp5mXMlFMmU-2" value="- estadoAtual: Estado&lt;div&gt;- comandos: ArrayList&amp;lt;Strategy&amp;gt;&lt;/div&gt;" style="text;strokeColor=none;fillColor=none;align=left;verticalAlign=top;spacingLeft=4;spacingRight=4;overflow=hidden;rotatable=0;points=[[0,0.5],[1,0.5]];portConstraint=eastwest;whiteSpace=wrap;html=1;" vertex="1" parent="cnREgjGOpxp5mXMlFMmU-1">
          <mxGeometry y="26" width="200" height="44" as="geometry" />
        </mxCell>
        <mxCell id="cnREgjGOpxp5mXMlFMmU-3" value="" style="line;strokeWidth=1;fillColor=none;align=left;verticalAlign=middle;spacingTop=-1;spacingLeft=3;spacingRight=3;rotatable=0;labelPosition=right;points=[];portConstraint=eastwest;strokeColor=inherit;" vertex="1" parent="cnREgjGOpxp5mXMlFMmU-1">
          <mxGeometry y="70" width="200" height="8" as="geometry" />
        </mxCell>
        <mxCell id="cnREgjGOpxp5mXMlFMmU-4" value="+ &amp;lt;create&amp;gt;Robo()&lt;div&gt;+ executarComando(): void&lt;/div&gt;&lt;div&gt;+ ligar(): void&lt;/div&gt;&lt;div&gt;+ desligar(): void&lt;/div&gt;&lt;div&gt;+acao(): void&lt;/div&gt;" style="text;strokeColor=none;fillColor=none;align=left;verticalAlign=top;spacingLeft=4;spacingRight=4;overflow=hidden;rotatable=0;points=[[0,0.5],[1,0.5]];portConstraint=eastwest;whiteSpace=wrap;html=1;" vertex="1" parent="cnREgjGOpxp5mXMlFMmU-1">
          <mxGeometry y="78" width="200" height="85" as="geometry" />
        </mxCell>
        <mxCell id="cnREgjGOpxp5mXMlFMmU-11" value="" style="edgeStyle=orthogonalEdgeStyle;rounded=0;orthogonalLoop=1;jettySize=auto;html=1;entryX=0.5;entryY=0;entryDx=0;entryDy=0;endArrow=none;endFill=0;" edge="1" parent="1" source="cnREgjGOpxp5mXMlFMmU-9" target="cnREgjGOpxp5mXMlFMmU-1">
          <mxGeometry relative="1" as="geometry" />
        </mxCell>
        <mxCell id="cnREgjGOpxp5mXMlFMmU-9" value="&lt;p style=&quot;margin:0px;margin-top:4px;text-align:center;&quot;&gt;&lt;i&gt;&amp;lt;&amp;lt;Interface&amp;gt;&amp;gt;&lt;/i&gt;&lt;br&gt;&lt;b&gt;Estado&lt;/b&gt;&lt;/p&gt;&lt;hr size=&quot;1&quot; style=&quot;border-style:solid;&quot;&gt;&lt;p style=&quot;margin:0px;margin-left:4px;&quot;&gt;+ acao(Robo r): Estado&lt;br&gt;+ ligar(): Estado&lt;/p&gt;&lt;p style=&quot;margin:0px;margin-left:4px;&quot;&gt;+ desligar(): Estado&lt;/p&gt;&lt;p style=&quot;margin:0px;margin-left:4px;&quot;&gt;&lt;br&gt;&lt;br&gt;&lt;/p&gt;" style="verticalAlign=top;align=left;overflow=fill;html=1;whiteSpace=wrap;" vertex="1" parent="1">
          <mxGeometry x="729" y="339" width="183" height="98" as="geometry" />
        </mxCell>
        <mxCell id="cnREgjGOpxp5mXMlFMmU-12" value="EstadoEspera" style="swimlane;fontStyle=1;align=center;verticalAlign=top;childLayout=stackLayout;horizontal=1;startSize=26;horizontalStack=0;resizeParent=1;resizeParentMax=0;resizeLast=0;collapsible=1;marginBottom=0;whiteSpace=wrap;html=1;" vertex="1" parent="1">
          <mxGeometry x="585" y="95" width="160" height="117" as="geometry" />
        </mxCell>
        <mxCell id="cnREgjGOpxp5mXMlFMmU-13" value="." style="text;strokeColor=none;fillColor=none;align=left;verticalAlign=top;spacingLeft=4;spacingRight=4;overflow=hidden;rotatable=0;points=[[0,0.5],[1,0.5]];portConstraint=eastwest;whiteSpace=wrap;html=1;" vertex="1" parent="cnREgjGOpxp5mXMlFMmU-12">
          <mxGeometry y="26" width="160" height="26" as="geometry" />
        </mxCell>
        <mxCell id="cnREgjGOpxp5mXMlFMmU-14" value="" style="line;strokeWidth=1;fillColor=none;align=left;verticalAlign=middle;spacingTop=-1;spacingLeft=3;spacingRight=3;rotatable=0;labelPosition=right;points=[];portConstraint=eastwest;strokeColor=inherit;" vertex="1" parent="cnREgjGOpxp5mXMlFMmU-12">
          <mxGeometry y="52" width="160" height="8" as="geometry" />
        </mxCell>
        <mxCell id="cnREgjGOpxp5mXMlFMmU-15" value="&lt;p style=&quot;margin: 0px 0px 0px 4px;&quot;&gt;+ acao(Robo r): Estado&lt;br&gt;+ ligar(): Estado&lt;/p&gt;&lt;p style=&quot;margin: 0px 0px 0px 4px;&quot;&gt;+ desligar(): Estado&lt;/p&gt;" style="text;strokeColor=none;fillColor=none;align=left;verticalAlign=top;spacingLeft=4;spacingRight=4;overflow=hidden;rotatable=0;points=[[0,0.5],[1,0.5]];portConstraint=eastwest;whiteSpace=wrap;html=1;" vertex="1" parent="cnREgjGOpxp5mXMlFMmU-12">
          <mxGeometry y="60" width="160" height="57" as="geometry" />
        </mxCell>
        <mxCell id="cnREgjGOpxp5mXMlFMmU-16" value="EstadoDesligado" style="swimlane;fontStyle=1;align=center;verticalAlign=top;childLayout=stackLayout;horizontal=1;startSize=26;horizontalStack=0;resizeParent=1;resizeParentMax=0;resizeLast=0;collapsible=1;marginBottom=0;whiteSpace=wrap;html=1;" vertex="1" parent="1">
          <mxGeometry x="405" y="95" width="160" height="117" as="geometry" />
        </mxCell>
        <mxCell id="cnREgjGOpxp5mXMlFMmU-17" value="." style="text;strokeColor=none;fillColor=none;align=left;verticalAlign=top;spacingLeft=4;spacingRight=4;overflow=hidden;rotatable=0;points=[[0,0.5],[1,0.5]];portConstraint=eastwest;whiteSpace=wrap;html=1;" vertex="1" parent="cnREgjGOpxp5mXMlFMmU-16">
          <mxGeometry y="26" width="160" height="26" as="geometry" />
        </mxCell>
        <mxCell id="cnREgjGOpxp5mXMlFMmU-18" value="" style="line;strokeWidth=1;fillColor=none;align=left;verticalAlign=middle;spacingTop=-1;spacingLeft=3;spacingRight=3;rotatable=0;labelPosition=right;points=[];portConstraint=eastwest;strokeColor=inherit;" vertex="1" parent="cnREgjGOpxp5mXMlFMmU-16">
          <mxGeometry y="52" width="160" height="8" as="geometry" />
        </mxCell>
        <mxCell id="cnREgjGOpxp5mXMlFMmU-19" value="&lt;p style=&quot;margin: 0px 0px 0px 4px;&quot;&gt;+ acao(Robo r): Estado&lt;br&gt;+ ligar(): Estado&lt;/p&gt;&lt;p style=&quot;margin: 0px 0px 0px 4px;&quot;&gt;+ desligar(): Estado&lt;/p&gt;" style="text;strokeColor=none;fillColor=none;align=left;verticalAlign=top;spacingLeft=4;spacingRight=4;overflow=hidden;rotatable=0;points=[[0,0.5],[1,0.5]];portConstraint=eastwest;whiteSpace=wrap;html=1;" vertex="1" parent="cnREgjGOpxp5mXMlFMmU-16">
          <mxGeometry y="60" width="160" height="57" as="geometry" />
        </mxCell>
        <mxCell id="cnREgjGOpxp5mXMlFMmU-20" value="EstadoOperacao" style="swimlane;fontStyle=1;align=center;verticalAlign=top;childLayout=stackLayout;horizontal=1;startSize=26;horizontalStack=0;resizeParent=1;resizeParentMax=0;resizeLast=0;collapsible=1;marginBottom=0;whiteSpace=wrap;html=1;" vertex="1" parent="1">
          <mxGeometry x="769" y="95" width="160" height="117" as="geometry" />
        </mxCell>
        <mxCell id="cnREgjGOpxp5mXMlFMmU-21" value="." style="text;strokeColor=none;fillColor=none;align=left;verticalAlign=top;spacingLeft=4;spacingRight=4;overflow=hidden;rotatable=0;points=[[0,0.5],[1,0.5]];portConstraint=eastwest;whiteSpace=wrap;html=1;" vertex="1" parent="cnREgjGOpxp5mXMlFMmU-20">
          <mxGeometry y="26" width="160" height="26" as="geometry" />
        </mxCell>
        <mxCell id="cnREgjGOpxp5mXMlFMmU-22" value="" style="line;strokeWidth=1;fillColor=none;align=left;verticalAlign=middle;spacingTop=-1;spacingLeft=3;spacingRight=3;rotatable=0;labelPosition=right;points=[];portConstraint=eastwest;strokeColor=inherit;" vertex="1" parent="cnREgjGOpxp5mXMlFMmU-20">
          <mxGeometry y="52" width="160" height="8" as="geometry" />
        </mxCell>
        <mxCell id="cnREgjGOpxp5mXMlFMmU-23" value="&lt;p style=&quot;margin: 0px 0px 0px 4px;&quot;&gt;+ acao(Robo r): Estado&lt;br&gt;+ ligar(): Estado&lt;/p&gt;&lt;p style=&quot;margin: 0px 0px 0px 4px;&quot;&gt;+ desligar(): Estado&lt;/p&gt;" style="text;strokeColor=none;fillColor=none;align=left;verticalAlign=top;spacingLeft=4;spacingRight=4;overflow=hidden;rotatable=0;points=[[0,0.5],[1,0.5]];portConstraint=eastwest;whiteSpace=wrap;html=1;" vertex="1" parent="cnREgjGOpxp5mXMlFMmU-20">
          <mxGeometry y="60" width="160" height="57" as="geometry" />
        </mxCell>
        <mxCell id="cnREgjGOpxp5mXMlFMmU-24" value="EstadoReparo" style="swimlane;fontStyle=1;align=center;verticalAlign=top;childLayout=stackLayout;horizontal=1;startSize=26;horizontalStack=0;resizeParent=1;resizeParentMax=0;resizeLast=0;collapsible=1;marginBottom=0;whiteSpace=wrap;html=1;" vertex="1" parent="1">
          <mxGeometry x="963" y="95" width="160" height="117" as="geometry" />
        </mxCell>
        <mxCell id="cnREgjGOpxp5mXMlFMmU-25" value="." style="text;strokeColor=none;fillColor=none;align=left;verticalAlign=top;spacingLeft=4;spacingRight=4;overflow=hidden;rotatable=0;points=[[0,0.5],[1,0.5]];portConstraint=eastwest;whiteSpace=wrap;html=1;" vertex="1" parent="cnREgjGOpxp5mXMlFMmU-24">
          <mxGeometry y="26" width="160" height="26" as="geometry" />
        </mxCell>
        <mxCell id="cnREgjGOpxp5mXMlFMmU-26" value="" style="line;strokeWidth=1;fillColor=none;align=left;verticalAlign=middle;spacingTop=-1;spacingLeft=3;spacingRight=3;rotatable=0;labelPosition=right;points=[];portConstraint=eastwest;strokeColor=inherit;" vertex="1" parent="cnREgjGOpxp5mXMlFMmU-24">
          <mxGeometry y="52" width="160" height="8" as="geometry" />
        </mxCell>
        <mxCell id="cnREgjGOpxp5mXMlFMmU-27" value="&lt;p style=&quot;margin: 0px 0px 0px 4px;&quot;&gt;+ acao(Robo r): Estado&lt;br&gt;+ ligar(): Estado&lt;/p&gt;&lt;p style=&quot;margin: 0px 0px 0px 4px;&quot;&gt;+ desligar(): Estado&lt;/p&gt;" style="text;strokeColor=none;fillColor=none;align=left;verticalAlign=top;spacingLeft=4;spacingRight=4;overflow=hidden;rotatable=0;points=[[0,0.5],[1,0.5]];portConstraint=eastwest;whiteSpace=wrap;html=1;" vertex="1" parent="cnREgjGOpxp5mXMlFMmU-24">
          <mxGeometry y="60" width="160" height="57" as="geometry" />
        </mxCell>
        <mxCell id="cnREgjGOpxp5mXMlFMmU-28" value="" style="endArrow=none;dashed=1;html=1;rounded=0;dashPattern=12 12;" edge="1" parent="1">
          <mxGeometry width="50" height="50" relative="1" as="geometry">
            <mxPoint x="480" y="290" as="sourcePoint" />
            <mxPoint x="1034" y="290" as="targetPoint" />
            <Array as="points">
              <mxPoint x="781" y="290" />
            </Array>
          </mxGeometry>
        </mxCell>
        <mxCell id="cnREgjGOpxp5mXMlFMmU-29" value="" style="endArrow=none;dashed=1;html=1;rounded=0;entryX=0.521;entryY=1.033;entryDx=0;entryDy=0;entryPerimeter=0;dashPattern=12 12;" edge="1" parent="1" target="cnREgjGOpxp5mXMlFMmU-15">
          <mxGeometry width="50" height="50" relative="1" as="geometry">
            <mxPoint x="668" y="289" as="sourcePoint" />
            <mxPoint x="795" y="245" as="targetPoint" />
          </mxGeometry>
        </mxCell>
        <mxCell id="cnREgjGOpxp5mXMlFMmU-30" value="" style="endArrow=none;dashed=1;html=1;rounded=0;entryX=0.472;entryY=1.048;entryDx=0;entryDy=0;entryPerimeter=0;dashPattern=12 12;" edge="1" parent="1" target="cnREgjGOpxp5mXMlFMmU-19">
          <mxGeometry width="50" height="50" relative="1" as="geometry">
            <mxPoint x="481" y="290" as="sourcePoint" />
            <mxPoint x="481" y="215" as="targetPoint" />
          </mxGeometry>
        </mxCell>
        <mxCell id="cnREgjGOpxp5mXMlFMmU-31" value="" style="endArrow=none;dashed=1;html=1;rounded=0;entryX=0.406;entryY=1.053;entryDx=0;entryDy=0;entryPerimeter=0;dashPattern=12 12;" edge="1" parent="1" target="cnREgjGOpxp5mXMlFMmU-27">
          <mxGeometry width="50" height="50" relative="1" as="geometry">
            <mxPoint x="1034" y="291" as="sourcePoint" />
            <mxPoint x="678" y="224" as="targetPoint" />
          </mxGeometry>
        </mxCell>
        <mxCell id="cnREgjGOpxp5mXMlFMmU-32" value="" style="endArrow=none;dashed=1;html=1;rounded=0;entryX=0.474;entryY=1.033;entryDx=0;entryDy=0;entryPerimeter=0;dashPattern=12 12;" edge="1" parent="1" target="cnREgjGOpxp5mXMlFMmU-23">
          <mxGeometry width="50" height="50" relative="1" as="geometry">
            <mxPoint x="847" y="290" as="sourcePoint" />
            <mxPoint x="836" y="222" as="targetPoint" />
          </mxGeometry>
        </mxCell>
        <mxCell id="cnREgjGOpxp5mXMlFMmU-33" value="" style="endArrow=none;html=1;rounded=0;startArrow=block;startFill=0;dashed=1;dashPattern=12 12;" edge="1" parent="1">
          <mxGeometry width="50" height="50" relative="1" as="geometry">
            <mxPoint x="823" y="338" as="sourcePoint" />
            <mxPoint x="823" y="291" as="targetPoint" />
          </mxGeometry>
        </mxCell>
        <mxCell id="cnREgjGOpxp5mXMlFMmU-35" value="" style="edgeStyle=orthogonalEdgeStyle;rounded=0;orthogonalLoop=1;jettySize=auto;html=1;entryX=0.444;entryY=0.99;entryDx=0;entryDy=0;entryPerimeter=0;endArrow=none;endFill=0;" edge="1" parent="1" source="cnREgjGOpxp5mXMlFMmU-34" target="cnREgjGOpxp5mXMlFMmU-4">
          <mxGeometry relative="1" as="geometry" />
        </mxCell>
        <mxCell id="cnREgjGOpxp5mXMlFMmU-34" value="&lt;p style=&quot;margin:0px;margin-top:4px;text-align:center;&quot;&gt;&lt;i&gt;&amp;lt;&amp;lt;Interface&amp;gt;&amp;gt;&lt;/i&gt;&lt;br&gt;&lt;b&gt;Strategy&lt;/b&gt;&lt;/p&gt;&lt;hr size=&quot;1&quot; style=&quot;border-style:solid;&quot;&gt;&lt;p style=&quot;margin:0px;margin-left:4px;&quot;&gt;+ executar: void&lt;br&gt;&lt;br&gt;&lt;/p&gt;&lt;p style=&quot;margin:0px;margin-left:4px;&quot;&gt;&lt;br&gt;&lt;br&gt;&lt;/p&gt;" style="verticalAlign=top;align=left;overflow=fill;html=1;whiteSpace=wrap;" vertex="1" parent="1">
          <mxGeometry x="736" y="722" width="183" height="76" as="geometry" />
        </mxCell>
        <mxCell id="cnREgjGOpxp5mXMlFMmU-36" value="ComandoEntrega" style="swimlane;fontStyle=1;align=center;verticalAlign=top;childLayout=stackLayout;horizontal=1;startSize=26;horizontalStack=0;resizeParent=1;resizeParentMax=0;resizeLast=0;collapsible=1;marginBottom=0;whiteSpace=wrap;html=1;" vertex="1" parent="1">
          <mxGeometry x="602" y="883" width="160" height="117" as="geometry" />
        </mxCell>
        <mxCell id="cnREgjGOpxp5mXMlFMmU-37" value="." style="text;strokeColor=none;fillColor=none;align=left;verticalAlign=top;spacingLeft=4;spacingRight=4;overflow=hidden;rotatable=0;points=[[0,0.5],[1,0.5]];portConstraint=eastwest;whiteSpace=wrap;html=1;" vertex="1" parent="cnREgjGOpxp5mXMlFMmU-36">
          <mxGeometry y="26" width="160" height="26" as="geometry" />
        </mxCell>
        <mxCell id="cnREgjGOpxp5mXMlFMmU-38" value="" style="line;strokeWidth=1;fillColor=none;align=left;verticalAlign=middle;spacingTop=-1;spacingLeft=3;spacingRight=3;rotatable=0;labelPosition=right;points=[];portConstraint=eastwest;strokeColor=inherit;" vertex="1" parent="cnREgjGOpxp5mXMlFMmU-36">
          <mxGeometry y="52" width="160" height="8" as="geometry" />
        </mxCell>
        <mxCell id="cnREgjGOpxp5mXMlFMmU-39" value="&lt;p style=&quot;margin: 0px 0px 0px 4px;&quot;&gt;+ executar(): void&lt;br&gt;&lt;/p&gt;" style="text;strokeColor=none;fillColor=none;align=left;verticalAlign=top;spacingLeft=4;spacingRight=4;overflow=hidden;rotatable=0;points=[[0,0.5],[1,0.5]];portConstraint=eastwest;whiteSpace=wrap;html=1;" vertex="1" parent="cnREgjGOpxp5mXMlFMmU-36">
          <mxGeometry y="60" width="160" height="57" as="geometry" />
        </mxCell>
        <mxCell id="cnREgjGOpxp5mXMlFMmU-54" style="edgeStyle=orthogonalEdgeStyle;rounded=0;orthogonalLoop=1;jettySize=auto;html=1;entryX=0;entryY=0.5;entryDx=0;entryDy=0;exitX=0.625;exitY=0;exitDx=0;exitDy=0;exitPerimeter=0;endArrow=block;endFill=0;dashed=1;dashPattern=12 12;" edge="1" parent="1" source="cnREgjGOpxp5mXMlFMmU-40" target="cnREgjGOpxp5mXMlFMmU-34">
          <mxGeometry relative="1" as="geometry">
            <mxPoint x="518" y="844" as="sourcePoint" />
            <Array as="points">
              <mxPoint x="518" y="883" />
              <mxPoint x="518" y="827" />
              <mxPoint x="628" y="827" />
              <mxPoint x="628" y="760" />
            </Array>
          </mxGeometry>
        </mxCell>
        <mxCell id="cnREgjGOpxp5mXMlFMmU-40" value="ComandoDancar" style="swimlane;fontStyle=1;align=center;verticalAlign=top;childLayout=stackLayout;horizontal=1;startSize=26;horizontalStack=0;resizeParent=1;resizeParentMax=0;resizeLast=0;collapsible=1;marginBottom=0;whiteSpace=wrap;html=1;" vertex="1" parent="1">
          <mxGeometry x="421" y="883" width="160" height="117" as="geometry" />
        </mxCell>
        <mxCell id="cnREgjGOpxp5mXMlFMmU-41" value="." style="text;strokeColor=none;fillColor=none;align=left;verticalAlign=top;spacingLeft=4;spacingRight=4;overflow=hidden;rotatable=0;points=[[0,0.5],[1,0.5]];portConstraint=eastwest;whiteSpace=wrap;html=1;" vertex="1" parent="cnREgjGOpxp5mXMlFMmU-40">
          <mxGeometry y="26" width="160" height="26" as="geometry" />
        </mxCell>
        <mxCell id="cnREgjGOpxp5mXMlFMmU-42" value="" style="line;strokeWidth=1;fillColor=none;align=left;verticalAlign=middle;spacingTop=-1;spacingLeft=3;spacingRight=3;rotatable=0;labelPosition=right;points=[];portConstraint=eastwest;strokeColor=inherit;" vertex="1" parent="cnREgjGOpxp5mXMlFMmU-40">
          <mxGeometry y="52" width="160" height="8" as="geometry" />
        </mxCell>
        <mxCell id="cnREgjGOpxp5mXMlFMmU-43" value="&lt;p style=&quot;margin: 0px 0px 0px 4px;&quot;&gt;+ executar(): void&lt;/p&gt;" style="text;strokeColor=none;fillColor=none;align=left;verticalAlign=top;spacingLeft=4;spacingRight=4;overflow=hidden;rotatable=0;points=[[0,0.5],[1,0.5]];portConstraint=eastwest;whiteSpace=wrap;html=1;" vertex="1" parent="cnREgjGOpxp5mXMlFMmU-40">
          <mxGeometry y="60" width="160" height="57" as="geometry" />
        </mxCell>
        <mxCell id="cnREgjGOpxp5mXMlFMmU-56" value="" style="edgeStyle=orthogonalEdgeStyle;rounded=0;orthogonalLoop=1;jettySize=auto;html=1;dashed=1;dashPattern=12 12;endArrow=block;endFill=0;" edge="1" parent="1" source="cnREgjGOpxp5mXMlFMmU-44" target="cnREgjGOpxp5mXMlFMmU-34">
          <mxGeometry relative="1" as="geometry" />
        </mxCell>
        <mxCell id="cnREgjGOpxp5mXMlFMmU-44" value="ComandoLimpeza" style="swimlane;fontStyle=1;align=center;verticalAlign=top;childLayout=stackLayout;horizontal=1;startSize=26;horizontalStack=0;resizeParent=1;resizeParentMax=0;resizeLast=0;collapsible=1;marginBottom=0;whiteSpace=wrap;html=1;" vertex="1" parent="1">
          <mxGeometry x="785" y="883" width="160" height="117" as="geometry" />
        </mxCell>
        <mxCell id="cnREgjGOpxp5mXMlFMmU-45" value="." style="text;strokeColor=none;fillColor=none;align=left;verticalAlign=top;spacingLeft=4;spacingRight=4;overflow=hidden;rotatable=0;points=[[0,0.5],[1,0.5]];portConstraint=eastwest;whiteSpace=wrap;html=1;" vertex="1" parent="cnREgjGOpxp5mXMlFMmU-44">
          <mxGeometry y="26" width="160" height="26" as="geometry" />
        </mxCell>
        <mxCell id="cnREgjGOpxp5mXMlFMmU-46" value="" style="line;strokeWidth=1;fillColor=none;align=left;verticalAlign=middle;spacingTop=-1;spacingLeft=3;spacingRight=3;rotatable=0;labelPosition=right;points=[];portConstraint=eastwest;strokeColor=inherit;" vertex="1" parent="cnREgjGOpxp5mXMlFMmU-44">
          <mxGeometry y="52" width="160" height="8" as="geometry" />
        </mxCell>
        <mxCell id="cnREgjGOpxp5mXMlFMmU-47" value="&lt;p style=&quot;margin: 0px 0px 0px 4px;&quot;&gt;+ executar(): void&lt;br&gt;&lt;/p&gt;" style="text;strokeColor=none;fillColor=none;align=left;verticalAlign=top;spacingLeft=4;spacingRight=4;overflow=hidden;rotatable=0;points=[[0,0.5],[1,0.5]];portConstraint=eastwest;whiteSpace=wrap;html=1;" vertex="1" parent="cnREgjGOpxp5mXMlFMmU-44">
          <mxGeometry y="60" width="160" height="57" as="geometry" />
        </mxCell>
        <mxCell id="cnREgjGOpxp5mXMlFMmU-55" style="edgeStyle=orthogonalEdgeStyle;rounded=0;orthogonalLoop=1;jettySize=auto;html=1;entryX=1;entryY=0.5;entryDx=0;entryDy=0;dashed=1;dashPattern=12 12;endArrow=block;endFill=0;" edge="1" parent="1" source="cnREgjGOpxp5mXMlFMmU-48" target="cnREgjGOpxp5mXMlFMmU-34">
          <mxGeometry relative="1" as="geometry">
            <Array as="points">
              <mxPoint x="1059" y="822" />
              <mxPoint x="949" y="822" />
              <mxPoint x="949" y="760" />
            </Array>
          </mxGeometry>
        </mxCell>
        <mxCell id="cnREgjGOpxp5mXMlFMmU-48" value="ComandoCantar" style="swimlane;fontStyle=1;align=center;verticalAlign=top;childLayout=stackLayout;horizontal=1;startSize=26;horizontalStack=0;resizeParent=1;resizeParentMax=0;resizeLast=0;collapsible=1;marginBottom=0;whiteSpace=wrap;html=1;" vertex="1" parent="1">
          <mxGeometry x="979" y="883" width="160" height="117" as="geometry" />
        </mxCell>
        <mxCell id="cnREgjGOpxp5mXMlFMmU-49" value="." style="text;strokeColor=none;fillColor=none;align=left;verticalAlign=top;spacingLeft=4;spacingRight=4;overflow=hidden;rotatable=0;points=[[0,0.5],[1,0.5]];portConstraint=eastwest;whiteSpace=wrap;html=1;" vertex="1" parent="cnREgjGOpxp5mXMlFMmU-48">
          <mxGeometry y="26" width="160" height="26" as="geometry" />
        </mxCell>
        <mxCell id="cnREgjGOpxp5mXMlFMmU-50" value="" style="line;strokeWidth=1;fillColor=none;align=left;verticalAlign=middle;spacingTop=-1;spacingLeft=3;spacingRight=3;rotatable=0;labelPosition=right;points=[];portConstraint=eastwest;strokeColor=inherit;" vertex="1" parent="cnREgjGOpxp5mXMlFMmU-48">
          <mxGeometry y="52" width="160" height="8" as="geometry" />
        </mxCell>
        <mxCell id="cnREgjGOpxp5mXMlFMmU-51" value="&lt;p style=&quot;margin: 0px 0px 0px 4px;&quot;&gt;+ executar(): void&lt;br&gt;&lt;/p&gt;" style="text;strokeColor=none;fillColor=none;align=left;verticalAlign=top;spacingLeft=4;spacingRight=4;overflow=hidden;rotatable=0;points=[[0,0.5],[1,0.5]];portConstraint=eastwest;whiteSpace=wrap;html=1;" vertex="1" parent="cnREgjGOpxp5mXMlFMmU-48">
          <mxGeometry y="60" width="160" height="57" as="geometry" />
        </mxCell>
        <mxCell id="cnREgjGOpxp5mXMlFMmU-53" style="edgeStyle=orthogonalEdgeStyle;rounded=0;orthogonalLoop=1;jettySize=auto;html=1;entryX=0.362;entryY=1.003;entryDx=0;entryDy=0;entryPerimeter=0;endArrow=block;endFill=0;dashed=1;dashPattern=12 12;" edge="1" parent="1" source="cnREgjGOpxp5mXMlFMmU-36" target="cnREgjGOpxp5mXMlFMmU-34">
          <mxGeometry relative="1" as="geometry" />
        </mxCell>
      </root>
    </mxGraphModel>
  </diagram>
</mxfile>
